<svg xmlns="http://www.w3.org/2000/svg" width="928.0" height="308.0" viewBox="0 0 928.0 308.0"><defs><marker id="arrow" markerWidth="8" markerHeight="8" refX="7" refY="4" orient="auto"><path d="M0,0 L8,4 L0,8" fill="#334155"/></marker></defs><rect width="100%" height="100%" fill="white"/><g font-family="Arial" font-size="17" fill="#0f172a"><text x="20" y="25">Problem 8 — diagram of supplied JFF</text><path d="M 466.0,81.0 C 420.0,10.0 540.0,10.0 494.0,81.0" fill="none" stroke="#334155" stroke-width="2" marker-end="url(#arrow)"/><text x="480.0" y="33.0" text-anchor="middle" stroke="white" stroke-width="4" paint-order="stroke">0, 1</text><path d="M 288.9926761515842,210.83298257417806 Q 468.0,159.5 644.123553523233,108.99398097495524" fill="none" stroke="#334155" stroke-width="2" marker-end="url(#arrow)"/><text x="468.0" y="152.5" text-anchor="middle" stroke="white" stroke-width="4" paint-order="stroke">1</text><path d="M 697.9995803304091,100.85227511175904 Q 760.0,100.5 819.0004680930052,100.16477006765338" fill="none" stroke="#334155" stroke-width="2" marker-end="url(#arrow)"/><text x="760.0" y="93.5" text-anchor="middle" stroke="white" stroke-width="4" paint-order="stroke">0</text><path d="M 102.0479559041323,116.77997244008267 Q 172.0,160.5 239.40804918385246,202.63003073990777" fill="none" stroke="#334155" stroke-width="2" marker-end="url(#arrow)"/><text x="172.0" y="153.5" text-anchor="middle" stroke="white" stroke-width="4" paint-order="stroke">0</text><path d="M 505.99964735960504,100.13541482999794 Q 576.0,100.5 643.0003933296713,100.84896038192537" fill="none" stroke="#334155" stroke-width="2" marker-end="url(#arrow)"/><text x="576.0" y="93.5" text-anchor="middle" stroke="white" stroke-width="4" paint-order="stroke">1</text><path d="M 286.81720606699827,205.53504483376946 Q 372.0,159.0 454.5500393868096,113.90321922387253" fill="none" stroke="#334155" stroke-width="2" marker-end="url(#arrow)"/><text x="372.0" y="152.0" text-anchor="middle" stroke="white" stroke-width="4" paint-order="stroke">1</text><path d="M 10.0,103.0 L 53.0,103.0" stroke="#334155" stroke-width="2" marker-end="url(#arrow)"/><circle cx="80.0" cy="103.0" r="25" fill="white" stroke="#334155" stroke-width="2"/><text x="80.0" y="109.0" text-anchor="middle">q0</text><circle cx="264.0" cy="218.0" r="25" fill="white" stroke="#334155" stroke-width="2"/><text x="264.0" y="224.0" text-anchor="middle">q1</text><circle cx="480.0" cy="100.0" r="25" fill="white" stroke="#334155" stroke-width="2"/><text x="480.0" y="106.0" text-anchor="middle">q2</text><circle cx="672.0" cy="101.0" r="25" fill="white" stroke="#334155" stroke-width="2"/><text x="672.0" y="107.0" text-anchor="middle">q3</text><circle cx="848.0" cy="100.0" r="25" fill="white" stroke="#334155" stroke-width="2"/><circle cx="848.0" cy="100.0" r="20" fill="none" stroke="#334155" stroke-width="2"/><text x="848.0" y="106.0" text-anchor="middle">q4</text></g></svg>