<svg xmlns="http://www.w3.org/2000/svg" width="547.0" height="471.0" viewBox="0 0 547.0 471.0"><defs><marker id="arrow" markerWidth="8" markerHeight="8" refX="7" refY="4" orient="auto"><path d="M0,0 L8,4 L0,8" fill="#334155"/></marker></defs><rect width="100%" height="100%" fill="white"/><g font-family="Arial" font-size="17" fill="#0f172a"><text x="20" y="25">Problem 20 — diagram of supplied JFF</text><path d="M 109.3556748982735,130.98102114813608 Q 144.5,179.0 177.87251645961803,224.59809179630977" fill="none" stroke="#334155" stroke-width="2" marker-end="url(#arrow)"/><text x="144.5" y="172.0" text-anchor="middle" stroke="white" stroke-width="4" paint-order="stroke">1</text><path d="M 105.98750975728076,369.8058142560397 Q 272.41525003994656,409.9831862117241 438.01393142457147,380.1012071759557" fill="none" stroke="#334155" stroke-width="2" marker-end="url(#arrow)"/><text x="272.95762501997325" y="385.4915931058621" text-anchor="middle" stroke="white" stroke-width="4" paint-order="stroke">0</text><path d="M 441.01249024271925,380.1941857439603 Q 274.58474996005344,340.0168137882759 108.98606857542855,369.8987928240443" fill="none" stroke="#334155" stroke-width="2" marker-end="url(#arrow)"/><text x="274.04237498002675" y="350.5084068941379" text-anchor="middle" stroke="white" stroke-width="4" paint-order="stroke">0</text><path d="M 465.890690769914,355.0236755288196 Q 461.0,240.5 456.2373064489421,128.97359267939353" fill="none" stroke="#334155" stroke-width="2" marker-end="url(#arrow)"/><text x="461.0" y="233.5" text-anchor="middle" stroke="white" stroke-width="4" paint-order="stroke">1</text><path d="M 220.9913466736381,247.32925556971256 Q 273.4029251946177,280.9883512914359 321.00965178709595,244.74813801839753" fill="none" stroke="#334155" stroke-width="2" marker-end="url(#arrow)"/><text x="272.9514625973089" y="256.494175645718" text-anchor="middle" stroke="white" stroke-width="4" paint-order="stroke">0</text><path d="M 324.0086533263619,244.67074443028744 Q 271.5970748053823,211.0116487085641 223.99034821290402,247.25186198160247" fill="none" stroke="#334155" stroke-width="2" marker-end="url(#arrow)"/><text x="272.0485374026911" y="221.50582435428205" text-anchor="middle" stroke="white" stroke-width="4" paint-order="stroke">0</text><path d="M 366.88489373532633,263.77120035674966 Q 408.5,312.5 448.16684929521296,358.94750729439465" fill="none" stroke="#334155" stroke-width="2" marker-end="url(#arrow)"/><text x="408.5" y="305.5" text-anchor="middle" stroke="white" stroke-width="4" paint-order="stroke">1</text><path d="M 119.99003036866318,109.28005456042484 Q 275.469157322505,139.9865793424312 426.0111199734141,100.80301606721845" fill="none" stroke="#334155" stroke-width="2" marker-end="url(#arrow)"/><text x="274.9845786612525" y="115.4932896712156" text-anchor="middle" stroke="white" stroke-width="4" paint-order="stroke">0</text><path d="M 429.0099696313368,100.71994543957516 Q 273.530842677495,70.01342065756879 122.98888002658586,109.19698393278155" fill="none" stroke="#334155" stroke-width="2" marker-end="url(#arrow)"/><text x="274.0154213387475" y="80.5067103287844" text-anchor="middle" stroke="white" stroke-width="4" paint-order="stroke">0</text><path d="M 177.08842103897442,266.8460961242095 Q 137.5,308.5 99.97829961037469,347.97935432299704" fill="none" stroke="#334155" stroke-width="2" marker-end="url(#arrow)"/><text x="137.5" y="301.5" text-anchor="middle" stroke="white" stroke-width="4" paint-order="stroke">1</text><path d="M 81.40335670839,343.0379008947848 Q 87.0,239.5 92.43471751756499,138.95772592504775" fill="none" stroke="#334155" stroke-width="2" marker-end="url(#arrow)"/><text x="87.0" y="232.5" text-anchor="middle" stroke="white" stroke-width="4" paint-order="stroke">1</text><path d="M 439.6815239063145,121.00819578562582 Q 402.5,172.0 367.08599256603384,220.56778162372507" fill="none" stroke="#334155" stroke-width="2" marker-end="url(#arrow)"/><text x="402.5" y="165.0" text-anchor="middle" stroke="white" stroke-width="4" paint-order="stroke">1</text><path d="M 24.0,110.0 L 67.0,110.0" stroke="#334155" stroke-width="2" marker-end="url(#arrow)"/><circle cx="94.0" cy="110.0" r="25" fill="white" stroke="#334155" stroke-width="2"/><text x="94.0" y="116.0" text-anchor="middle">q0</text><circle cx="455.0" cy="100.0" r="25" fill="white" stroke="#334155" stroke-width="2"/><circle cx="455.0" cy="100.0" r="20" fill="none" stroke="#334155" stroke-width="2"/><text x="455.0" y="106.0" text-anchor="middle">q1</text><circle cx="195.0" cy="248.0" r="25" fill="white" stroke="#334155" stroke-width="2"/><circle cx="195.0" cy="248.0" r="20" fill="none" stroke="#334155" stroke-width="2"/><text x="195.0" y="254.0" text-anchor="middle">q2</text><circle cx="350.0" cy="244.0" r="25" fill="white" stroke="#334155" stroke-width="2"/><circle cx="350.0" cy="244.0" r="20" fill="none" stroke="#334155" stroke-width="2"/><text x="350.0" y="250.0" text-anchor="middle">q3</text><circle cx="80.0" cy="369.0" r="25" fill="white" stroke="#334155" stroke-width="2"/><text x="80.0" y="375.0" text-anchor="middle">q4</text><circle cx="467.0" cy="381.0" r="25" fill="white" stroke="#334155" stroke-width="2"/><circle cx="467.0" cy="381.0" r="20" fill="none" stroke="#334155" stroke-width="2"/><text x="467.0" y="387.0" text-anchor="middle">q5</text></g></svg>